<?xml version="1.0" standalone="no"?>
<!DOCTYPE svg PUBLIC "-//W3C//DTD SVG 20010904//EN"
 "http://www.w3.org/TR/2001/REC-SVG-20010904/DTD/svg10.dtd">
<svg version="1.0" xmlns="http://www.w3.org/2000/svg"
 width="400.000000pt" height="400.000000pt" viewBox="0 0 400.000000 400.000000"
 preserveAspectRatio="xMidYMid meet">
<metadata>
Created by potrace 1.14, written by Peter Selinger 2001-2017
</metadata>
<g transform="translate(0.000000,400.000000) scale(0.100000,-0.100000)"
fill="#000000" stroke="none">
<path d="M1780 3980 c-25 -4 -63 -10 -85 -14 -92 -14 -111 -17 -125 -22 -8 -3
-28 -8 -45 -11 -77 -12 -284 -91 -422 -160 -84 -41 -153 -79 -153 -83 0 -4 -8
-10 -17 -13 -35 -9 -227 -162 -317 -251 -104 -103 -146 -150 -199 -221 -20
-27 -41 -55 -47 -62 -21 -26 -130 -208 -130 -218 0 -6 -5 -16 -11 -22 -15 -15
-61 -121 -105 -242 -42 -116 -81 -276 -100 -411 -10 -78 -13 -392 -3 -465 12
-98 14 -110 40 -235 16 -78 81 -273 119 -355 18 -38 36 -79 41 -90 5 -11 13
-27 19 -35 5 -8 30 -51 56 -95 106 -180 293 -395 459 -527 73 -58 248 -178
260 -178 3 0 27 -12 53 -27 26 -16 49 -28 52 -29 3 0 37 -15 75 -33 104 -49
261 -99 393 -126 157 -33 191 -36 377 -40 165 -4 275 5 405 31 41 8 89 17 105
20 75 14 282 91 400 149 246 121 452 280 641 496 75 86 244 337 244 363 0 5 6
17 13 25 41 48 137 319 171 481 35 171 37 191 41 390 3 157 -2 240 -21 350 -3
19 -8 49 -10 65 -33 199 -163 515 -290 705 -243 364 -582 632 -981 779 -90 33
-242 75 -313 86 -25 4 -54 9 -65 11 -65 13 -129 17 -295 19 -102 1 -205 -2
-230 -5z"/>
</g>
</svg>
